<?xml version="1.0" encoding="UTF-8"?>
<svg width="63px" height="56px" viewBox="0 0 63 56" version="1.1" xmlns="http://www.w3.org/2000/svg" xmlns:xlink="http://www.w3.org/1999/xlink">
    <!-- Generator: Sketch 47.1 (45422) - http://www.bohemiancoding.com/sketch -->
    <title>Shape</title>
    <desc>Created with Sketch.</desc>
    <defs>
        <filter x="-0.7%" y="-1.4%" width="101.4%" height="104.0%" filterUnits="objectBoundingBox" id="filter-1">
            <feOffset dx="0" dy="2" in="SourceAlpha" result="shadowOffsetOuter1"></feOffset>
            <feGaussianBlur stdDeviation="2" in="shadowOffsetOuter1" result="shadowBlurOuter1"></feGaussianBlur>
            <feColorMatrix values="0 0 0 0 0   0 0 0 0 0   0 0 0 0 0  0 0 0 0.5 0" type="matrix" in="shadowBlurOuter1" result="shadowMatrixOuter1"></feColorMatrix>
            <feMerge>
                <feMergeNode in="shadowMatrixOuter1"></feMergeNode>
                <feMergeNode in="SourceGraphic"></feMergeNode>
            </feMerge>
        </filter>
        <path d="M50.8518355,27.1012236 C50.5611277,26.5139043 50.2704199,25.9265851 49.6890043,25.3392659 C50.5611277,24.1646274 51.1425433,23.381535 50.5611277,21.6195773 C49.9797121,20.0533927 48.2354652,18.2914349 45.9098026,16.7252503 L40.9677698,14.9632925 L43.2934323,11.4393771 C44.4562636,9.87319244 44.4562636,7.91546162 43.0027245,6.54505006 C41.5491854,4.97886541 38.932815,4 36.3164447,4 C33.4093665,4 31.083704,5.17463849 29.6301649,6.93659622 C29.6301649,6.93659622 27.3045024,6.54505006 24.3974242,7.1323693 L20.6182226,9.48164627 C20.6182226,9.48164627 15.6761897,10.4605117 14.8040662,13.3971079 C13.9319428,16.3337041 13.641235,20.0533927 12.4784037,21.4238042 C11.3155724,22.7942158 5.21070829,27.8843159 1.72221449,30.625139 C-0.894155861,32.7786429 -0.312740227,35.1279199 2.01292231,36.8898776 L16.5483131,46.6785317 C18.8739757,48.2447164 24.3974242,48.8320356 28.1766258,46.0912125 C32.2465353,43.3503893 29.6301649,39.6307008 29.6301649,39.6307008 C30.7929962,39.0433815 33.9907822,37.2814238 37.1885681,36.6941046 C40.3863541,36.1067853 45.328387,34.9321468 47.9447574,32.5828699 C50.2704199,30.625139 51.4332512,29.0589544 50.8518355,27.1012236 Z M23.8160086,43.3503893 C22.6531773,44.1334816 20.9089304,44.1334816 19.7460991,43.3503893 L7.53637083,35.1279199 C6.95495519,34.7363737 6.66424738,34.3448276 6.66424738,33.7575083 C6.66424738,33.1701891 6.95495519,32.7786429 7.53637083,32.3870968 L9.57132554,31.0166852 L23.8160086,40.6095662 C24.3974242,41.0011123 24.688132,41.3926585 24.688132,41.9799778 C24.688132,42.567297 24.3974242,42.9588432 23.8160086,43.3503893 Z M43.0027245,23.9688543 C41.5491854,23.9688543 40.9677698,22.9899889 39.8049385,22.2068966 C38.6421072,21.4238042 36.0257369,21.2280311 33.9907822,21.8153504 C31.9558274,22.4026696 31.083704,23.7730812 31.083704,25.1434928 C31.083704,27.1012236 33.1186587,28.8631813 36.0257369,28.8631813 C38.0606916,28.8631813 38.6421072,28.6674082 39.8049385,28.2758621 C41.5491854,27.4927697 42.130601,26.7096774 43.2934323,26.7096774 C44.4562636,26.7096774 45.328387,27.1012236 45.328387,28.2758621 C45.328387,29.4505006 43.5841401,30.8209121 41.8398932,31.6040044 C40.0956463,32.3870968 38.6421072,32.5828699 36.8978603,32.7786429 C35.1536134,32.974416 33.9907822,32.974416 31.6651196,33.9532814 C29.6301649,34.7363737 27.5952102,35.7152392 26.4323789,36.4983315 L13.0598193,27.4927697 C15.6761897,25.3392659 18.0018522,22.9899889 18.29256,21.8153504 L20.3275148,14.1802002 C20.6182226,13.3971079 21.490346,13.2013348 22.0717617,13.2013348 C22.9438851,13.2013348 23.8160086,13.592881 24.1067164,13.9844271 L25.2695477,11.4393771 C25.5602555,10.8520578 26.4323789,10.4605117 27.0137946,10.4605117 C28.1766258,10.4605117 29.3394571,11.0478309 29.0487493,12.0266963 L27.5952102,16.7252503 C29.3394571,14.3759733 31.9558274,11.4393771 33.7000743,9.28587319 C34.28149,8.69855395 34.8629056,8.11123471 36.3164447,8.11123471 C37.7699838,8.11123471 38.932815,9.28587319 38.3513994,10.2647386 C37.7699838,11.0478309 32.5372431,17.1167964 30.2115805,19.6618465 C29.9208727,19.8576196 30.2115805,20.0533927 30.7929962,19.8576196 C31.6651196,19.4660734 33.7000743,18.487208 35.7350291,18.487208 C39.2235229,18.2914349 40.9677698,19.2703003 41.8398932,19.6618465 C43.0027245,20.2491657 44.1655557,21.2280311 45.0376792,22.2068966 C45.6190948,23.185762 44.4562636,23.9688543 43.0027245,23.9688543 L43.0027245,23.9688543 Z M42.4213088,25.3392659 C41.2584776,25.3392659 40.3863541,25.5350389 39.8049385,26.1223582 C39.2235229,26.7096774 38.0606916,27.4927697 36.6071525,27.4927697 C34.5721978,27.4927697 33.4093665,26.5139043 33.4093665,25.3392659 C33.4093665,24.1646274 34.5721978,23.381535 36.6071525,23.381535 C38.0606916,23.381535 39.2235229,24.1646274 39.8049385,24.7519466 C40.3863541,25.3392659 41.2584776,25.3392659 42.4213088,25.3392659 Z" id="path-2"></path>
        <filter x="-11.8%" y="-13.6%" width="123.5%" height="127.3%" filterUnits="objectBoundingBox" id="filter-3">
            <feOffset dx="0" dy="0" in="SourceAlpha" result="shadowOffsetOuter1"></feOffset>
            <feGaussianBlur stdDeviation="2" in="shadowOffsetOuter1" result="shadowBlurOuter1"></feGaussianBlur>
            <feColorMatrix values="0 0 0 0 0   0 0 0 0 0   0 0 0 0 0  0 0 0 0.5 0" type="matrix" in="shadowBlurOuter1"></feColorMatrix>
        </filter>
    </defs>
    <g id="Page-1" stroke="none" stroke-width="1" fill="none" fill-rule="evenodd">
        <g id="Desktop" transform="translate(-437.000000, -2103.000000)" fill-rule="nonzero">
            <g id="Skills" transform="translate(25.000000, 792.000000)">
                <g id="Competencies" filter="url(#filter-1)" transform="translate(101.000000, 1311.000000)">
                    <g id="Title" transform="translate(317.000000, 0.000000)">
                        <g id="Shape">
                            <use fill="black" fill-opacity="1" filter="url(#filter-3)" xlink:href="#path-2"></use>
                            <use fill="#FFFFFF" fill-rule="evenodd" xlink:href="#path-2"></use>
                        </g>
                    </g>
                </g>
            </g>
        </g>
    </g>
</svg>