<?xml version="1.0" encoding="UTF-8"?>
<svg width="58px" height="51px" viewBox="0 0 58 51" version="1.1" xmlns="http://www.w3.org/2000/svg" xmlns:xlink="http://www.w3.org/1999/xlink">
    <!-- Generator: Sketch 47.1 (45422) - http://www.bohemiancoding.com/sketch -->
    <title>Cogs, Wheel, Gears, Settings</title>
    <desc>Created with Sketch.</desc>
    <defs>
        <filter x="-3.3%" y="-10.2%" width="105.5%" height="136.7%" filterUnits="objectBoundingBox" id="filter-1">
            <feOffset dx="0" dy="2" in="SourceAlpha" result="shadowOffsetOuter1"></feOffset>
            <feGaussianBlur stdDeviation="2" in="shadowOffsetOuter1" result="shadowBlurOuter1"></feGaussianBlur>
            <feColorMatrix values="0 0 0 0 0   0 0 0 0 0   0 0 0 0 0  0 0 0 0.5 0" type="matrix" in="shadowBlurOuter1" result="shadowMatrixOuter1"></feColorMatrix>
            <feMerge>
                <feMergeNode in="shadowMatrixOuter1"></feMergeNode>
                <feMergeNode in="SourceGraphic"></feMergeNode>
            </feMerge>
        </filter>
        <filter x="-15.2%" y="-12.6%" width="130.4%" height="135.7%" filterUnits="objectBoundingBox" id="filter-2">
            <feOffset dx="0" dy="2" in="SourceAlpha" result="shadowOffsetOuter1"></feOffset>
            <feGaussianBlur stdDeviation="2" in="shadowOffsetOuter1" result="shadowBlurOuter1"></feGaussianBlur>
            <feColorMatrix values="0 0 0 0 0   0 0 0 0 0   0 0 0 0 0  0 0 0 0.5 0" type="matrix" in="shadowBlurOuter1" result="shadowMatrixOuter1"></feColorMatrix>
            <feMerge>
                <feMergeNode in="shadowMatrixOuter1"></feMergeNode>
                <feMergeNode in="SourceGraphic"></feMergeNode>
            </feMerge>
        </filter>
    </defs>
    <g id="Page-1" stroke="none" stroke-width="1" fill="none" fill-rule="evenodd">
        <g id="Desktop" transform="translate(-423.000000, -925.000000)" fill-rule="nonzero" fill="#FFFFFF">
            <g id="Skills" transform="translate(25.000000, 792.000000)">
                <g id="Development-2" transform="translate(55.000000, 128.000000)">
                    <g id="Title" filter="url(#filter-1)" transform="translate(349.000000, 0.000000)">
                        <g id="Cogs,-Wheel,-Gears,-Settings" filter="url(#filter-2)" transform="translate(0.000000, 7.000000)">
                            <path d="M21.4611321,19.5526494 C21.4611321,17.9825124 20.8623282,16.6419709 19.6647204,15.5310249 C18.4671126,14.4200789 17.0219991,13.8646059 15.3293801,13.8646059 C13.636761,13.8646059 12.1916476,14.4200789 10.9940398,15.5310249 C9.79643196,16.6419709 9.19762805,17.9825124 9.19762805,19.5526494 C9.19762805,21.1227864 9.79643196,22.4633279 10.9940398,23.5742738 C12.1916476,24.6852198 13.636761,25.2406928 15.3293801,25.2406928 C17.0219991,25.2406928 18.4671126,24.6852198 19.6647204,23.5742738 C20.8623282,22.4633279 21.4611321,21.1227864 21.4611321,19.5526494 Z M39.8563882,30.9287363 C39.8563882,30.1584804 39.5529942,29.4919128 38.9462063,28.9290335 C38.3394183,28.3661542 37.6208536,28.0847145 36.7905122,28.0847145 C35.9601708,28.0847145 35.2416061,28.3661542 34.6348181,28.9290335 C34.0280302,29.4919128 33.7246362,30.1584804 33.7246362,30.9287363 C33.7246362,31.7138048 34.0240382,32.3840755 34.6228421,32.9395485 C35.221646,33.4950215 35.9442027,33.772758 36.7905122,33.772758 C37.6368217,33.772758 38.3593785,33.4950215 38.9581824,32.9395485 C39.5569863,32.3840755 39.8563882,31.7138048 39.8563882,30.9287363 Z M39.8563882,8.17656246 C39.8563882,7.40630658 39.5529942,6.73973899 38.9462063,6.17685969 C38.3394183,5.61398039 37.6208536,5.33254074 36.7905122,5.33254074 C35.9601708,5.33254074 35.2416061,5.61398039 34.6348181,6.17685969 C34.0280302,6.73973899 33.7246362,7.40630658 33.7246362,8.17656246 C33.7246362,8.96163096 34.0240382,9.6319017 34.6228421,10.1873747 C35.221646,10.7428477 35.9442027,11.0205842 36.7905122,11.0205842 C37.6368217,11.0205842 38.3593785,10.7428477 38.9581824,10.1873747 C39.5569863,9.6319017 39.8563882,8.96163096 39.8563882,8.17656246 Z M30.6587602,17.5307277 L30.6587602,21.6412278 C30.6587602,21.789354 30.6028718,21.9337769 30.4910951,22.0744968 C30.3793184,22.2152166 30.2515735,22.2929828 30.1078606,22.3077954 L26.3952763,22.8410495 C26.2196272,23.3594909 25.9641375,23.9223702 25.6288073,24.5296874 C26.1717229,25.2406928 26.8902876,26.0924181 27.7845014,27.0848632 C27.8962781,27.2329893 27.9521665,27.3811154 27.9521665,27.5292416 C27.9521665,27.7069929 27.8962781,27.8477127 27.7845014,27.951401 C27.417235,28.3957794 26.7585507,29.0586439 25.8084485,29.9399943 C24.8583463,30.8213448 24.2315982,31.2620201 23.9282042,31.2620201 C23.7525551,31.2620201 23.58489,31.2101759 23.4252089,31.1064876 L20.670711,29.1067849 C20.0798911,29.3882245 19.4651191,29.61782 18.8263949,29.7955714 C18.6507458,31.3953336 18.4671126,32.5433111 18.2754953,33.2395039 C18.1637186,33.5950066 17.924197,33.772758 17.5569306,33.772758 L13.1018295,33.772758 C12.9261804,33.772758 12.7664994,33.7172107 12.6227864,33.6061161 C12.4790735,33.4950215 12.399233,33.3654111 12.3832649,33.217285 L11.8323653,29.8177903 C11.2894497,29.6696642 10.6906458,29.4400686 10.0359535,29.1290038 L7.20959907,31.1064876 C7.09782234,31.2101759 6.9381413,31.2620201 6.73055595,31.2620201 C6.5549068,31.2620201 6.3872417,31.2027696 6.22756066,31.0842687 C3.92815365,29.1141912 2.77845014,27.9291821 2.77845014,27.5292416 C2.77845014,27.395928 2.83433851,27.2552082 2.94611524,27.1070821 C3.10579628,26.8997055 3.43314242,26.5071712 3.92815365,25.9294793 C4.42316488,25.3517874 4.79841533,24.9000027 5.053905,24.5741252 C4.6866386,23.9223702 4.40719678,23.3150531 4.21557952,22.7521738 L0.574851753,22.2189197 C0.415170711,22.2041071 0.279441825,22.1337472 0.167665095,22.00784 C0.0558883649,21.8819328 0,21.7375098 0,21.5745711 L0,17.4640709 C0,17.3159448 0.0558883649,17.1715218 0.167665095,17.030802 C0.279441825,16.8900822 0.407186659,16.8123159 0.550899597,16.7975033 L4.26348384,16.2642492 C4.43913298,15.7458078 4.69462265,15.1829285 5.02995284,14.5756113 C4.4870373,13.8646059 3.76847261,13.0128807 2.87425877,12.0204356 C2.76248204,11.8574968 2.70659367,11.7093707 2.70659367,11.5760572 C2.70659367,11.3983058 2.76248204,11.2501797 2.87425877,11.1316788 C3.22555706,10.6873004 3.88024933,10.0281391 4.83833559,9.15419493 C5.79642185,8.28025075 6.42716196,7.84327867 6.73055595,7.84327867 C6.90620509,7.84327867 7.07387019,7.89512281 7.23355123,7.9988111 L9.98804921,9.99851388 C10.5309648,9.73188684 11.1457368,9.49488503 11.8323653,9.28750845 C12.0080144,7.68774623 12.1916476,6.54717502 12.3832649,5.86579481 C12.4950416,5.51029209 12.7345631,5.33254074 13.1018295,5.33254074 L17.5569306,5.33254074 C17.7325798,5.33254074 17.8922608,5.38808804 18.0359738,5.49918263 C18.1796867,5.61027723 18.2595272,5.7398876 18.2754953,5.88801373 L18.8263949,9.28750845 C19.3693105,9.43563458 19.9681144,9.66523008 20.6228067,9.97629496 L23.4491611,7.9988111 C23.5769059,7.89512281 23.736587,7.84327867 23.9282042,7.84327867 C24.1038534,7.84327867 24.2715185,7.90252912 24.4311995,8.02103002 C26.7306065,9.99110757 27.88031,11.1761166 27.88031,11.5760572 C27.88031,11.7093707 27.8244217,11.8500905 27.7126449,11.9982167 C27.5210277,12.2352185 27.1856975,12.635159 26.7066544,13.1980383 C26.2276112,13.7609176 25.8683289,14.205296 25.6288073,14.5311735 C25.9960737,15.2421789 26.2675315,15.8494961 26.4431807,16.3531249 L30.0839084,16.8641601 C30.2435895,16.8937853 30.3793184,16.9715515 30.4910951,17.0974587 C30.6028718,17.2233659 30.6587602,17.3677889 30.6587602,17.5307277 Z M45.9881403,29.3734119 L45.9881403,32.4840607 C45.9881403,32.7210625 44.7985165,32.950658 42.419269,33.1728472 C42.2276517,33.5727877 41.9881301,33.9579157 41.7007043,34.328231 C42.5150776,36.0020563 42.9222642,37.0241266 42.9222642,37.3944419 C42.9222642,37.4536924 42.890328,37.5055365 42.8264556,37.5499744 C40.8783469,38.6016699 39.8883244,39.1275177 39.8563882,39.1275177 C39.7286434,39.1275177 39.361377,38.7794212 38.754589,38.0832284 C38.1478011,37.3870356 37.7326304,36.8834068 37.5090769,36.5723419 C37.1897148,36.6019671 36.9501933,36.6167797 36.7905122,36.6167797 C36.6308312,36.6167797 36.3913096,36.6019671 36.0719475,36.5723419 C35.8483941,36.8834068 35.4332234,37.3870356 34.8264354,38.0832284 C34.2196474,38.7794212 33.852381,39.1275177 33.7246362,39.1275177 C33.6927,39.1275177 32.7026775,38.6016699 30.7545688,37.5499744 C30.6906964,37.5055365 30.6587602,37.4536924 30.6587602,37.3944419 C30.6587602,37.0241266 31.0659468,36.0020563 31.8803202,34.328231 C31.5928943,33.9579157 31.3533727,33.5727877 31.1617555,33.1728472 C28.7825079,32.950658 27.5928842,32.7210625 27.5928842,32.4840607 L27.5928842,29.3734119 C27.5928842,29.1364101 28.7825079,28.9068146 31.1617555,28.6846254 C31.3693408,28.2550596 31.6088624,27.8699317 31.8803202,27.5292416 C31.0659468,25.8554163 30.6587602,24.833346 30.6587602,24.4630306 C30.6587602,24.4037802 30.6906964,24.351936 30.7545688,24.3074982 C30.8184412,24.277873 31.097883,24.1297468 31.5928943,23.8631198 C32.0879055,23.5964928 32.5589646,23.3446783 33.0060715,23.1076765 C33.4531784,22.8706747 33.6927,22.7521738 33.7246362,22.7521738 C33.852381,22.7521738 34.2196474,23.0965671 34.8264354,23.7853536 C35.4332234,24.4741401 35.8483941,24.9740658 36.0719475,25.2851307 C36.3913096,25.2555054 36.6308312,25.2406928 36.7905122,25.2406928 C36.9501933,25.2406928 37.1897148,25.2555054 37.5090769,25.2851307 C38.3234502,24.2334351 39.057983,23.4039288 39.7126753,22.7966116 L39.8563882,22.7521738 C39.9202606,22.7521738 40.9102831,23.2706153 42.8264556,24.3074982 C42.890328,24.351936 42.9222642,24.4037802 42.9222642,24.4630306 C42.9222642,24.833346 42.5150776,25.8554163 41.7007043,27.5292416 C41.972162,27.8699317 42.2116836,28.2550596 42.419269,28.6846254 C44.7985165,28.9068146 45.9881403,29.1364101 45.9881403,29.3734119 Z M45.9881403,6.62123808 L45.9881403,9.73188684 C45.9881403,9.96888865 44.7985165,10.1984842 42.419269,10.4206734 C42.2276517,10.8206139 41.9881301,11.2057419 41.7007043,11.5760572 C42.5150776,13.2498825 42.9222642,14.2719528 42.9222642,14.6422681 C42.9222642,14.7015186 42.890328,14.7533627 42.8264556,14.7978005 C40.8783469,15.8494961 39.8883244,16.3753438 39.8563882,16.3753438 C39.7286434,16.3753438 39.361377,16.0272474 38.754589,15.3310546 C38.1478011,14.6348618 37.7326304,14.131233 37.5090769,13.8201681 C37.1897148,13.8497933 36.9501933,13.8646059 36.7905122,13.8646059 C36.6308312,13.8646059 36.3913096,13.8497933 36.0719475,13.8201681 C35.8483941,14.131233 35.4332234,14.6348618 34.8264354,15.3310546 C34.2196474,16.0272474 33.852381,16.3753438 33.7246362,16.3753438 C33.6927,16.3753438 32.7026775,15.8494961 30.7545688,14.7978005 C30.6906964,14.7533627 30.6587602,14.7015186 30.6587602,14.6422681 C30.6587602,14.2719528 31.0659468,13.2498825 31.8803202,11.5760572 C31.5928943,11.2057419 31.3533727,10.8206139 31.1617555,10.4206734 C28.7825079,10.1984842 27.5928842,9.96888865 27.5928842,9.73188684 L27.5928842,6.62123808 C27.5928842,6.38423627 28.7825079,6.15464077 31.1617555,5.93245157 C31.3693408,5.50288579 31.6088624,5.11775785 31.8803202,4.77706774 C31.0659468,3.10324246 30.6587602,2.08117215 30.6587602,1.71085682 C30.6587602,1.65160637 30.6906964,1.59976222 30.7545688,1.55532438 C30.8184412,1.52569916 31.097883,1.37757302 31.5928943,1.11094599 C32.0879055,0.84431895 32.5589646,0.592504526 33.0060715,0.355502716 C33.4531784,0.118500905 33.6927,0 33.7246362,0 C33.852381,0 34.2196474,0.344393256 34.8264354,1.03317977 C35.4332234,1.72196628 35.8483941,2.22189197 36.0719475,2.53295685 C36.3913096,2.50333162 36.6308312,2.48851901 36.7905122,2.48851901 C36.9501933,2.48851901 37.1897148,2.50333162 37.5090769,2.53295685 C38.3234502,1.48126132 39.057983,0.651754979 39.7126753,0.0444378395 L39.8563882,0 C39.9202606,0 40.9102831,0.51844146 42.8264556,1.55532438 C42.890328,1.59976222 42.9222642,1.65160637 42.9222642,1.71085682 C42.9222642,2.08117215 42.5150776,3.10324246 41.7007043,4.77706774 C41.972162,5.11775785 42.2116836,5.50288579 42.419269,5.93245157 C44.7985165,6.15464077 45.9881403,6.38423627 45.9881403,6.62123808 Z" id="Shape"></path>
                        </g>
                    </g>
                </g>
            </g>
        </g>
    </g>
</svg>