<?xml version="1.0" encoding="UTF-8"?>
<svg width="284px" height="241px" viewBox="0 0 284 241" version="1.1" xmlns="http://www.w3.org/2000/svg" xmlns:xlink="http://www.w3.org/1999/xlink">
    <!-- Generator: Sketch 47.1 (45422) - http://www.bohemiancoding.com/sketch -->
    <title>Github</title>
    <desc>Created with Sketch.</desc>
    <defs>
        <rect id="path-1" x="0" y="0" width="270" height="223" rx="54"></rect>
        <filter x="-5.9%" y="-4.0%" width="111.9%" height="116.1%" filterUnits="objectBoundingBox" id="filter-2">
            <feOffset dx="0" dy="11" in="SourceAlpha" result="shadowOffsetOuter1"></feOffset>
            <feGaussianBlur stdDeviation="3.5" in="shadowOffsetOuter1" result="shadowBlurOuter1"></feGaussianBlur>
            <feColorMatrix values="0 0 0 0 0   0 0 0 0 0   0 0 0 0 0  0 0 0 0.5 0" type="matrix" in="shadowBlurOuter1"></feColorMatrix>
        </filter>
    </defs>
    <g id="Page-1" stroke="none" stroke-width="1" fill="none" fill-rule="evenodd">
        <g id="5th-Iteration" transform="translate(-61.000000, -666.000000)">
            <g id="About" transform="translate(0.000000, 475.000000)">
                <g id="Github" transform="translate(68.000000, 191.000000)">
                    <g id="Rectangle">
                        <use fill="black" fill-opacity="1" filter="url(#filter-2)" xlink:href="#path-1"></use>
                        <use fill="#E0D2E4" fill-rule="evenodd" xlink:href="#path-1"></use>
                    </g>
                    <path d="M153.140059,120.268132 C155.144033,120.268132 156.80532,121.466983 158.250565,123.837643 C159.68091,126.226331 160.440781,129.137825 160.440781,132.626211 C160.440781,136.096569 159.68091,139.035105 158.250565,141.396751 C156.812769,143.785439 155.144033,144.966262 153.140059,144.966262 C151.069038,144.966262 149.251307,143.785439 147.813512,141.396751 C146.383167,139.035105 145.623296,136.096569 145.623296,132.626211 C145.623296,129.137825 146.383167,126.226331 147.813512,123.837643 C149.243858,121.457969 151.061588,120.268132 153.140059,120.268132 M178.767084,88.1876049 C184.324572,95.4978908 187.148014,104.367584 187.148014,114.805699 C187.148014,121.548108 186.507339,127.632501 185.218538,133.040851 C183.914838,138.422159 182.28335,142.811936 180.346423,146.192155 C178.346002,149.62292 175.894918,152.634327 173.0904,155.106918 C170.650102,157.372638 167.984668,159.259239 165.156452,160.722587 C162.485622,161.992369 159.711324,162.916927 156.879817,163.480846 C154.555908,163.999957 152.210941,164.370044 149.854734,164.589557 L144.751679,164.715752 L140.676684,164.850961 C136.89401,165.04968 133.10599,165.04968 129.323316,164.850961 L125.248321,164.715752 L120.145266,164.589557 C117.789011,164.370615 115.444019,164.000524 113.120183,163.480846 C110.286398,162.92955 107.510994,162.004623 104.843548,160.722587 C102.016073,159.263023 99.3527235,157.376126 96.91705,155.106918 C94.1085542,152.636943 91.6546876,149.62521 89.6535766,146.192155 C87.7092006,142.811936 86.0851625,138.422159 84.7814621,133.040851 C83.4926612,127.632501 82.8519856,121.548108 82.8519856,114.805699 C82.8519856,104.367584 85.6754281,95.4888769 91.2329165,88.1876049 C90.6220397,87.8180343 90.5996906,84.1583844 91.1733187,77.217669 C91.57073,70.6190264 92.8148336,64.1354847 94.8609283,58 C101.818963,58.8923777 110.430835,63.6697532 120.718894,72.2510013 C124.190462,71.1783453 128.921031,70.6014546 135,70.6014546 C141.347158,70.6014546 146.107527,71.1783453 149.288556,72.2600152 C153.974428,68.4291009 158.451707,65.3102859 162.735294,62.939626 C167.085928,60.5869939 170.222259,59.1898369 172.188984,58.8202664 L175.139072,58.0090139 C177.150495,63.8590454 178.372249,70.2679397 178.834131,77.2266829 C179.400309,84.1583844 179.37796,87.8180343 178.767084,88.1876049 M135.223491,158.676428 C147.798613,158.676428 157.229954,156.855617 163.688858,153.204981 C170.058365,149.563359 173.313891,142.045753 173.313891,130.706247 C173.313891,124.126088 171.280119,118.627599 167.190224,114.228808 C165.160467,111.894511 162.589858,110.366066 159.822455,109.848045 C157.028811,109.298196 152.752674,109.298196 147.008943,109.848045 C141.280111,110.406908 137.339211,110.659298 135.223491,110.659298 C132.355351,110.659298 129.263718,110.497047 125.397316,110.127477 C121.523463,109.76692 118.483979,109.541572 116.286313,109.424391 C113.88257,109.373668 111.483562,109.700906 109.149484,110.397894 C106.798107,111.005793 104.612071,112.323658 102.794876,114.228808 C98.913574,118.456335 96.9096003,123.936796 96.9096003,130.706247 C96.9096003,142.045753 100.083179,149.563359 106.445237,153.204981 C112.777496,156.855617 122.186488,158.676428 134.769059,158.676428 L135.223491,158.676428 M117.090882,120.268132 C119.087406,120.268132 120.756142,121.466983 122.193938,123.837643 C123.624283,126.226331 124.384154,129.137825 124.384154,132.626211 C124.384154,136.096569 123.624283,139.035105 122.193938,141.396751 C120.763592,143.785439 119.087406,144.966262 117.090882,144.966262 C115.012411,144.966262 113.20213,143.785439 111.756885,141.396751 C110.326539,139.035105 109.566668,136.096569 109.566668,132.626211 C109.566668,129.137825 110.326539,126.226331 111.756885,123.837643 C113.19468,121.457969 115.004961,120.268132 117.090882,120.268132" id="Shape" fill="#000000" fill-rule="nonzero"></path>
                </g>
            </g>
        </g>
    </g>
</svg>