<?xml version="1.0" encoding="UTF-8"?>
<svg width="161px" height="83px" viewBox="0 0 161 83" version="1.1" xmlns="http://www.w3.org/2000/svg" xmlns:xlink="http://www.w3.org/1999/xlink">
    <!-- Generator: Sketch 47.1 (45422) - http://www.bohemiancoding.com/sketch -->
    <title>Logo</title>
    <desc>Created with Sketch.</desc>
    <defs></defs>
    <g id="Symbols" stroke="none" stroke-width="1" fill="none" fill-rule="evenodd">
        <g id="Logo" stroke="#E78680" stroke-width="4">
            <g transform="translate(9.000000, 9.000000)">
                <g id="J" stroke-linecap="round">
                    <g id="Right-J" transform="translate(6.000000, 0.000000)">
                        <path d="M47.3274799,1.68679089 L47.3274799,46.4236778 L47.3274799,46.4236778 C47.3274799,48.5305138 46.3785535,50.5252954 44.7439852,51.85456 L28.3125246,65.2169623 L28.3125246,65.2169623 C25.7638067,67.2896322 22.116644,67.3110882 19.5437166,65.2685487 L0.00526508475,49.7577885 L0.00526508475,49.7577885 C0.00386078246,49.7566737 0.00181863286,49.7569084 0.000703815949,49.7583127 C0.000248060017,49.7588868 -9.56019171e-13,49.7595983 -9.09494702e-13,49.7603313 L-9.09494702e-13,49.7603313" id="Line-4"></path>
                        <path d="M24.5218756,1.47594203 L47.2494676,1.47594203" id="Line-3" stroke-linejoin="round"></path>
                    </g>
                    <g id="Left-J" transform="translate(0.000000, 6.000000)">
                        <path d="M45.5802757,0.836202307 L45.5802757,41.269161 L45.5802757,41.269161 C45.5802757,43.4144202 44.5965867,45.4412276 42.9112241,46.7685142 L27.3431188,59.0289854 L27.3431188,59.0289854 C24.8267683,61.0107065 21.2863476,61.0316835 18.7466911,59.0799194 L1.08002496e-12,44.6728051" id="Line-4"></path>
                        <path d="M23.8907979,0.62715173 L45.5802757,0.62715173" id="Line-3" stroke-linejoin="round"></path>
                    </g>
                </g>
                <g id="M" transform="translate(67.000000, 0.000000)">
                    <g id="Left-M">
                        <path d="M19.8090136,3.68964746 C18.7018965,2.67263773 17.2533353,2.10829079 15.75,2.10829079 C12.4362915,2.10829079 9.75,4.79458229 9.75,8.10829079 L9.75,58.6461717 C9.75,60.5210803 10.6264382,62.2882036 12.1190665,63.422815 C14.7571338,65.4281242 18.5213342,64.9151724 20.5266434,62.2771051 L43.1472509,32.518759 C45.021866,30.0526252 44.710923,26.5648109 42.4296211,24.4691822 L19.8090136,3.68964746 Z" id="Rectangle-6"></path>
                        <path d="M12.0590136,3.68964746 C10.9518965,2.67263773 9.5033353,2.10829079 8,2.10829079 C4.6862915,2.10829079 2,4.79458229 2,8.10829079 L2,58.6461717 C2,60.5210803 2.87643819,62.2882036 4.36906651,63.422815 C7.00713381,65.4281242 10.7713342,64.9151724 12.7766434,62.2771051 L35.3972509,32.518759 C37.271866,30.0526252 36.960923,26.5648109 34.6796211,24.4691822 L12.0590136,3.68964746 Z" id="Rectangle-6"></path>
                    </g>
                    <g id="Right-M" transform="translate(44.500000, 33.500000) scale(-1, 1) translate(-44.500000, -33.500000) translate(21.000000, 0.000000)">
                        <path d="M19.8090136,3.68964746 C18.7018965,2.67263773 17.2533353,2.10829079 15.75,2.10829079 C12.4362915,2.10829079 9.75,4.79458229 9.75,8.10829079 L9.75,58.6461717 C9.75,60.5210803 10.6264382,62.2882036 12.1190665,63.422815 C14.7571338,65.4281242 18.5213342,64.9151724 20.5266434,62.2771051 L43.1472509,32.518759 C45.021866,30.0526252 44.710923,26.5648109 42.4296211,24.4691822 L19.8090136,3.68964746 Z" id="Rectangle-6"></path>
                        <path d="M12.0590136,3.68964746 C10.9518965,2.67263773 9.5033353,2.10829079 8,2.10829079 C4.6862915,2.10829079 2,4.79458229 2,8.10829079 L2,58.6461717 C2,60.5210803 2.87643819,62.2882036 4.36906651,63.422815 C7.00713381,65.4281242 10.7713342,64.9151724 12.7766434,62.2771051 L35.3972509,32.518759 C37.271866,30.0526252 36.960923,26.5648109 34.6796211,24.4691822 L12.0590136,3.68964746 Z" id="Rectangle-6"></path>
                    </g>
                </g>
            </g>
        </g>
    </g>
</svg>