<?xml version="1.0" encoding="UTF-8"?>
<svg width="64px" height="57px" viewBox="0 0 64 57" version="1.1" xmlns="http://www.w3.org/2000/svg" xmlns:xlink="http://www.w3.org/1999/xlink">
    <!-- Generator: Sketch 47.1 (45422) - http://www.bohemiancoding.com/sketch -->
    <title>Shape</title>
    <desc>Created with Sketch.</desc>
    <defs>
        <filter x="-0.8%" y="-1.6%" width="101.5%" height="104.6%" filterUnits="objectBoundingBox" id="filter-1">
            <feOffset dx="0" dy="2" in="SourceAlpha" result="shadowOffsetOuter1"></feOffset>
            <feGaussianBlur stdDeviation="2" in="shadowOffsetOuter1" result="shadowBlurOuter1"></feGaussianBlur>
            <feColorMatrix values="0 0 0 0 0   0 0 0 0 0   0 0 0 0 0  0 0 0 0.5 0" type="matrix" in="shadowBlurOuter1" result="shadowMatrixOuter1"></feColorMatrix>
            <feMerge>
                <feMergeNode in="shadowMatrixOuter1"></feMergeNode>
                <feMergeNode in="SourceGraphic"></feMergeNode>
            </feMerge>
        </filter>
        <path d="M1.68666538,40.7054212 C0.307980459,41.9069135 -0.104919268,43.7157869 0.640850283,45.287035 C1.38661984,46.8582831 3.14386115,47.8817782 5.09168756,47.8793995 C6.36898168,47.8814507 7.59448791,47.4386786 8.49670974,46.6491743 L24.3023028,32.8476731 L17.4922584,26.9039199 L1.68666538,40.7054212 L1.68666538,40.7054212 Z M41.1894156,15.1257048 L48.0668544,12.0179149 L51.6740598,5.93404504 L48.3139672,3 L41.3466692,6.14982485 L37.7876027,12.1552294 L29.4050222,19.4749291 L32.8068351,22.4454045 L41.1894156,15.1257048 Z M42.6945574,31.0793995 C42.4763279,31.0681902 42.2677261,31.0233528 42.0462874,31.0233528 C40.8716991,31.0233528 39.7580868,31.2335279 38.7182874,31.5698082 L18.9556798,14.3130275 C19.3407907,13.4050709 19.5814851,12.4326606 19.5814851,11.4070058 C19.5814851,11.2136447 19.5301369,11.0314929 19.5172999,10.8409341 C19.1771186,6.46648874 15.0500135,3 9.95371263,3 C8.47103568,3 7.08142719,3.31666389 5.82660752,3.84070058 L12.2226577,9.4257548 C12.5596297,9.72 12.7906962,10.0674896 12.9447406,10.4345955 C13.3651533,11.4294245 13.137296,12.586789 12.2226577,13.3882569 C11.5968525,13.9347123 10.7752825,14.2093411 9.95371263,14.2093411 C9.57502025,14.2093411 9.19953713,14.1364804 8.84010029,14.0187823 C8.40739513,13.8838687 8.01326011,13.6687686 7.6847676,13.3882569 L1.28871745,7.80320267 C0.661992696,8.92611263 0.332925834,10.1578536 0.325940212,11.4070058 C0.325940212,15.8571143 4.29579171,19.4609174 9.30544262,19.757965 C9.52367213,19.7691743 9.73227387,19.8140117 9.95371263,19.8140117 C11.1283009,19.8140117 12.2419132,19.6038365 13.2817126,19.2675563 L33.0443202,36.5243369 C32.639117,37.4527199 32.4271836,38.436865 32.4185149,39.4303586 C32.4185149,39.6237198 32.4698631,39.8058716 32.4827001,39.9964304 C32.8228814,44.3708757 36.9499865,47.8373645 42.0462874,47.8373645 C43.5289643,47.8373645 44.9185728,47.5207006 46.1733925,46.9966639 L39.7773423,41.4116097 C39.4550001,41.1255239 39.2085052,40.7811395 39.0552594,40.402769 C38.6141251,39.3796042 38.8961978,38.225793 39.7773423,37.4491076 C40.4031475,36.9026522 41.2247175,36.6280234 42.0462874,36.6280234 C42.4249797,36.6280234 42.8004629,36.7008841 43.1598997,36.8185822 C43.5803124,36.9558966 43.9782604,37.1548624 44.3152324,37.4491076 L50.7112825,43.0341618 C51.3114137,41.9384487 51.6740598,40.7250375 51.6740598,39.4303586 C51.6740598,34.9802502 47.7042083,31.376447 42.6945574,31.0793995 L42.6945574,31.0793995 Z" id="path-2"></path>
        <filter x="-13.6%" y="-11.1%" width="127.2%" height="131.2%" filterUnits="objectBoundingBox" id="filter-3">
            <feOffset dx="0" dy="2" in="SourceAlpha" result="shadowOffsetOuter1"></feOffset>
            <feGaussianBlur stdDeviation="2" in="shadowOffsetOuter1" result="shadowBlurOuter1"></feGaussianBlur>
            <feColorMatrix values="0 0 0 0 0   0 0 0 0 0   0 0 0 0 0  0 0 0 0.5 0" type="matrix" in="shadowBlurOuter1"></feColorMatrix>
        </filter>
    </defs>
    <g id="Page-1" stroke="none" stroke-width="1" fill="none" fill-rule="evenodd">
        <g id="Desktop" transform="translate(-514.000000, -1719.000000)" fill-rule="nonzero">
            <g id="Skills" transform="translate(25.000000, 792.000000)">
                <g id="Tools" filter="url(#filter-1)" transform="translate(121.000000, 926.000000)">
                    <g transform="translate(374.000000, 0.000000)" id="Shape">
                        <g>
                            <use fill="black" fill-opacity="1" filter="url(#filter-3)" xlink:href="#path-2"></use>
                            <use fill="#FFFFFF" fill-rule="evenodd" xlink:href="#path-2"></use>
                        </g>
                    </g>
                </g>
            </g>
        </g>
    </g>
</svg>